<svg width="64" height="64" viewBox="0 0 64 64" fill="none" xmlns="http://www.w3.org/2000/svg">
  <!-- Head -->
  <rect x="20" y="6" width="24" height="16" rx="2" fill="none" stroke="url(#grad2)" stroke-width="0.8"/>
  
  <!-- Antenna -->
  <line x1="32" y1="2" x2="32" y2="6" stroke="url(#grad2)" stroke-width="1"/>
  <circle cx="32" cy="2" r="2" fill="none" stroke="url(#grad2)" stroke-width="0.8"/>
  
  <!-- Eyes -->
  <rect x="24" y="12" width="4" height="4" rx="1" fill="none" stroke="url(#grad2)" stroke-width="0.6"/>
  <rect x="36" y="12" width="4" height="4" rx="1" fill="none" stroke="url(#grad2)" stroke-width="0.6"/>
  
  <!-- Mouth (retro grille style) -->
  <rect x="26" y="18" width="12" height="2" fill="none" stroke="url(#grad2)" stroke-width="0.5"/>
  <rect x="26" y="20.5" width="12" height="2" fill="none" stroke="url(#grad2)" stroke-width="0.5"/>
  
  <!-- Body -->
  <rect x="14" y="24" width="36" height="26" rx="3" fill="none" stroke="url(#grad2)" stroke-width="0.8"/>
  
  <!-- Chest screen -->
  <rect x="20" y="32" width="24" height="10" rx="2" fill="none" stroke="url(#grad2)" stroke-width="1"/>
  <circle cx="24" cy="37" r="2" fill="none" stroke="url(#grad2)" stroke-width="0.6"/>
  <circle cx="40" cy="37" r="2" fill="none" stroke="url(#grad2)" stroke-width="0.6"/>
  
  <!-- Arms -->
  <rect x="6" y="28" width="8" height="16" rx="2" fill="none" stroke="url(#grad2)" stroke-width="0.7"/>
  <rect x="50" y="28" width="8" height="16" rx="2" fill="none" stroke="url(#grad2)" stroke-width="0.7"/>
  
  <!-- Legs -->
  <rect x="22" y="50" width="8" height="12" rx="2" fill="none" stroke="url(#grad2)" stroke-width="0.7"/>
  <rect x="34" y="50" width="8" height="12" rx="2" fill="none" stroke="url(#grad2)" stroke-width="0.7"/>
  
  <!-- Gradient defs -->
  <defs>
    <linearGradient id="grad2" x1="0" y1="0" x2="64" y2="64" gradientUnits="userSpaceOnUse">
      <stop offset="0.25" stop-color="#FFDB6E"/>
      <stop offset="1" stop-color="#FFBC5E"/>
    </linearGradient>
  </defs>
</svg>
